<svg
  width="320"
  height="320"
  viewBox="0 0 320 320"
  fill="none"
  xmlns="http://www.w3.org/2000/svg"
>
  <style>
    path { fill: #555; }
    @media (prefers-color-scheme: dark) {
      path { fill: #fff; }
    }
  </style>
  <path
    d="M207.2 106.4L160 200.4L113.2 106.4H53.2L160 320L320 0H260.8L233.6 53.6L207.2 106.4ZM26.8 53.2H86L59.6 0H-9.53674e-06L26.8 53.2Z"
  />
  <path
    d="M207.2 106.4L212.562 109.092L212.567 109.083L207.2 106.4ZM160 200.4L154.629 203.074L159.977 213.816L165.362 203.092L160 200.4ZM113.2 106.4L118.571 103.726L116.915 100.4H113.2V106.4ZM53.2 106.4V100.4H43.4918L47.8334 109.083L53.2 106.4ZM160 320L154.633 322.683L160 333.416L165.367 322.683L160 320ZM320 0L325.367 2.68328L329.708 -6H320V0ZM260.8 0V-6H257.116L255.449 -2.71518L260.8 0ZM233.6 53.6L228.25 50.8848L228.241 50.9007L228.233 50.9167L233.6 53.6ZM26.8 53.2L21.4415 55.8994L23.1042 59.2H26.8V53.2ZM86 53.2V59.2H95.6756L91.3746 50.5329L86 53.2ZM59.6 0L64.9746 -2.6671L63.3207 -6H59.6V0ZM-9.53674e-06 0V-6H-9.74089L-5.35849 2.69938L-9.53674e-06 0ZM201.838 103.708L154.638 197.708L165.362 203.092L212.562 109.092L201.838 103.708ZM165.371 197.726L118.571 103.726L107.829 109.074L154.629 203.074L165.371 197.726ZM113.2 100.4L53.2 100.4V112.4H113.2V100.4ZM47.8334 109.083L154.633 322.683L165.367 317.317L58.5666 103.717L47.8334 109.083ZM165.367 322.683L325.367 2.68328L314.633 -2.68328L154.633 317.317L165.367 322.683ZM320 -6H260.8V6H320V-6ZM255.449 -2.71518L228.25 50.8848L238.95 56.3152L266.15 2.71518L255.449 -2.71518ZM228.233 50.9167L201.833 103.717L212.567 109.083L238.967 56.2833L228.233 50.9167ZM26.8 59.2H86V47.2H26.8V59.2ZM91.3746 50.5329L64.9746 -2.6671L54.2254 2.6671L80.6254 55.8671L91.3746 50.5329ZM59.6 -6H-9.53674e-06V6H59.6V-6ZM-5.35849 2.69938L21.4415 55.8994L32.1585 50.5006L5.35847 -2.69938L-5.35849 2.69938Z"
  />
</svg>